<?xml version="1.0" encoding="UTF-8"?>
<svg version="1.1" xmlns="http://www.w3.org/2000/svg" width="261" height="240">
<path d="M0 0 C3 1.625 3 1.625 5 5 C5.70290375 9.66664669 5.92981265 14.28468643 6 19 C6.680625 19.07476563 7.36125 19.14953125 8.0625 19.2265625 C20.16792563 20.86852183 31.67394059 24.95507265 41.88671875 31.703125 C44.17853055 33.10956034 46.48321687 34.06557264 49 35 C49.48210937 34.57847656 49.96421875 34.15695313 50.4609375 33.72265625 C51.09257812 33.17480469 51.72421875 32.62695312 52.375 32.0625 C53.00148437 31.51722656 53.62796875 30.97195312 54.2734375 30.41015625 C56.79371296 28.35174123 57.98936705 28.00120373 61.3125 27.625 C65 28 65 28 67.875 30.375 C70.05444628 33.06725717 70.87637384 34.25824301 71.4375 37.625 C70.88297326 41.90277771 69.12366928 43.91560206 66.41015625 47.16796875 C64.80037292 49.05210679 64.80037292 49.05210679 64 52 C65.49927915 54.85335888 65.49927915 54.85335888 67.625 57.9375 C74.68209037 68.94846498 78.12758451 80.35495305 81 93 C81.66 92.67 82.32 92.34 83 92 C85.93359375 92.41796875 85.93359375 92.41796875 89.4375 93.1875 C90.59121094 93.42855469 91.74492187 93.66960937 92.93359375 93.91796875 C96.29779079 95.10508032 97.28666965 95.93712863 99 99 C99.98548263 101.9564479 100.12281956 103.54221802 99.3125 106.5625 C97.22408404 110.44098678 95.19951185 112.60016272 91 114 C89.10529184 114.0685495 87.2083166 114.08480372 85.3125 114.0625 C84.31863281 114.05347656 83.32476562 114.04445313 82.30078125 114.03515625 C81.54152344 114.02355469 80.78226563 114.01195313 80 114 C79.9175 115.2375 79.835 116.475 79.75 117.75 C78.20423979 131.13962563 71.5626766 144.02085108 64 155 C65.52961986 158.44164469 67.62729066 161.09151758 70 164 C71.56935594 167.13871188 71.35201103 169.53855822 71 173 C68.05020446 176.57080513 65.89955225 178.78414179 61.25 179.3125 C56.04207729 178.8117382 52.43510946 175.81678829 49 172 C44.83611589 173.51272194 41.16055896 175.61014907 37.375 177.875 C27.37862881 183.69347105 17.30499436 186.62756875 6 189 C6.03480469 189.66386719 6.06960937 190.32773438 6.10546875 191.01171875 C6.38147235 200.0146933 6.38147235 200.0146933 3 204 C0.43792811 206.65357446 -0.7605436 206.97861996 -4.5 207.3125 C-9.51351351 206.86486486 -9.51351351 206.86486486 -12 205 C-14.83651569 201.11626213 -15.34474574 198.45728732 -15.1875 193.6875 C-15.14689453 192.08455078 -15.14689453 192.08455078 -15.10546875 190.44921875 C-15.07066406 189.64097656 -15.03585938 188.83273438 -15 188 C-16.15886719 187.88011719 -17.31773438 187.76023438 -18.51171875 187.63671875 C-22.76730671 187.10044167 -26.7294889 186.10630194 -30.8125 184.8125 C-31.5031958 184.594729 -32.1938916 184.37695801 -32.90551758 184.15258789 C-41.18296491 181.42932598 -48.25643673 177.51746085 -55 172 C-57.18214568 171.22166466 -57.18214568 171.22166466 -59 171 C-59.20625 171.5775 -59.4125 172.155 -59.625 172.75 C-61.63404966 176.03753581 -63.53930597 177.30111384 -67 179 C-71.36567766 179.32534513 -74.8195867 178.7197642 -78.5625 176.4375 C-80.61850174 172.95123619 -80.85713753 169.87512596 -80 166 C-78.27172989 162.67100738 -76.40447962 159.70223981 -73 158 C-73.55860798 153.92288721 -74.82820361 151.46863859 -77.1875 148.125 C-83.62303896 138.33927306 -89.20232694 125.85635872 -89 114 C-89.66386719 114.02320312 -90.32773438 114.04640625 -91.01171875 114.0703125 C-97.26709193 114.19815954 -101.52260749 114.27652285 -106.3125 109.875 C-108.5231276 106.10874557 -108.94748175 103.26366785 -108 99 C-106.1875 96.0625 -106.1875 96.0625 -103 94 C-98.67743179 93.16538308 -94.39286484 93 -90 93 C-89.731875 91.8140625 -89.46375 90.628125 -89.1875 89.40625 C-85.91208056 75.62773806 -81.04952477 63.70676987 -73 52 C-74.22522881 49.21538907 -75.76293124 47.00401703 -77.625 44.625 C-79.43376835 42.12055151 -79.99644549 41.0222157 -80.5 37.875 C-79.79808146 33.83896841 -78.55045108 31.12274044 -75.1875 28.6875 C-72.22019177 27.75491741 -70.10315844 27.62762099 -67 28 C-64.03580643 29.68552183 -61.65367898 31.27089652 -59.375 33.8125 C-58.92125 34.204375 -58.4675 34.59625 -58 35 C-54.14721776 34.56514873 -51.46957516 32.43473362 -48.3125 30.3125 C-38.44209129 23.9752164 -26.80073602 19.42911767 -15 19 C-15.05220703 17.78763672 -15.05220703 17.78763672 -15.10546875 16.55078125 C-15.13253906 15.48214844 -15.15960938 14.41351563 -15.1875 13.3125 C-15.23970703 11.72888672 -15.23970703 11.72888672 -15.29296875 10.11328125 C-14.96063055 6.58163401 -14.11678496 4.81744571 -12 2 C-7.94317435 -0.70455043 -4.75836625 -0.74297298 0 0 Z M-42 50 C-39.57461221 55.60731123 -34.97117115 59.51876761 -30.75 63.8125 C-29.90308594 64.70904297 -29.05617188 65.60558594 -28.18359375 66.52929688 C-27.35472656 67.37169922 -26.52585937 68.21410156 -25.671875 69.08203125 C-24.9200293 69.85780518 -24.16818359 70.6335791 -23.39355469 71.43286133 C-20.62216711 73.63371418 -20.62216711 73.63371418 -15 72 C-15 61.44 -15 50.88 -15 40 C-24.74132996 40 -33.79055881 45.01493881 -42 50 Z M6 40 C6 50.56 6 61.12 6 72 C11.60903638 73.61610305 11.60903638 73.61610305 14.4140625 71.48828125 C15.14367187 70.77027344 15.87328125 70.05226563 16.625 69.3125 C17.35976562 68.60738281 18.09453125 67.90226562 18.8515625 67.17578125 C19.56054688 66.45777344 20.26953125 65.73976563 21 65 C21.75023437 64.29230469 22.50046875 63.58460937 23.2734375 62.85546875 C25.22707307 61.1783932 25.22707307 61.1783932 25 59 C25.5775 58.773125 26.155 58.54625 26.75 58.3125 C29.62887527 56.63315609 31.17447619 54.77209171 33 52 C32.27214644 48.7268542 32.27214644 48.7268542 29.05078125 47.24609375 C27.80974262 46.63289031 26.56335871 46.03041468 25.3125 45.4375 C24.69955078 45.13392578 24.08660156 44.83035156 23.45507812 44.51757812 C17.27504981 41.50948375 12.9446518 40 6 40 Z M-58 66 C-61.96736122 71.17961049 -64.18523133 76.72389056 -66.375 82.8125 C-66.64989258 83.56587646 -66.92478516 84.31925293 -67.20800781 85.09545898 C-68.81138754 89.49614555 -68.81138754 89.49614555 -68 94 C-63.62178091 94.0740719 -59.24389218 94.12856375 -54.86523438 94.16479492 C-53.37526091 94.179896 -51.88533199 94.20037858 -50.39550781 94.22631836 C-48.2557477 94.26264584 -46.11657434 94.27971221 -43.9765625 94.29296875 C-42.68830566 94.3086792 -41.40004883 94.32438965 -40.07275391 94.34057617 C-39.05874512 94.22818604 -38.04473633 94.1157959 -37 94 C-34.7542955 91.26957046 -34.7542955 91.26957046 -35.09985352 88.61645508 C-36.2490436 85.27610518 -37.89559964 83.61833876 -40.40234375 81.13671875 C-41.29244141 80.25048828 -42.18253906 79.36425781 -43.09960938 78.45117188 C-44.03611328 77.53916016 -44.97261719 76.62714844 -45.9375 75.6875 C-47.33645508 74.29047852 -47.33645508 74.29047852 -48.76367188 72.86523438 C-52.7534327 68.13764265 -52.7534327 68.13764265 -58 66 Z M47 66 C43.96849509 68.85824342 40.96084401 71.73898523 37.97290039 74.64257812 C36.95372087 75.62659117 35.92834245 76.60422609 34.89672852 77.57519531 C33.41299965 78.97383322 31.95322589 80.39404961 30.49609375 81.8203125 C29.61107178 82.66867676 28.7260498 83.51704102 27.81420898 84.39111328 C25.6639396 86.91775615 25.6639396 86.91775615 26.15649414 90.26123047 C26.73164883 92.88753206 26.73164883 92.88753206 28 94 C30.29151417 94.08790975 32.58572524 94.10694038 34.87890625 94.09765625 C35.5655687 94.0962413 36.25223114 94.09482635 36.95970154 94.09336853 C39.16067801 94.08775479 41.36155409 94.07520007 43.5625 94.0625 C45.05143083 94.05748676 46.54036324 94.05292355 48.02929688 94.04882812 C51.68623075 94.03778093 55.34310558 94.02050713 59 94 C60.83212562 90.33574876 58.50631512 86.33956937 57.3125 82.6171875 C55.35002719 77.20870589 53.13185735 71.84393937 50 67 C49.01 66.67 48.02 66.34 47 66 Z M-15 94 C-17.8859673 98.67938984 -17.7548505 103.6775337 -17 109 C-15.3610686 112.43362902 -12.95074054 114.39258243 -9.75 116.4375 C-5.66792398 117.27247009 -2.01751378 117.13744492 2 116 C5.2044343 113.47736023 7.73211647 110.91891273 9 107 C9.47357835 102.73779488 9.29830613 100.5539971 7.25 96.75 C4.54914968 93.44896072 2.69807714 91.25812797 -1.62109375 90.6015625 C-8.87192256 90.51054718 -8.87192256 90.51054718 -15 94 Z M-68 114 C-69.26934052 116.00467129 -69.26934052 116.00467129 -68.43359375 118.3984375 C-65.90298441 125.96049363 -62.74361531 132.96200321 -59 140 C-54.07229324 140 -52.57431103 138.23606434 -49.25 135 C-48.72575439 134.49887695 -48.20150879 133.99775391 -47.66137695 133.48144531 C-46.60291447 132.4672137 -45.54793744 131.44933136 -44.49658203 130.42773438 C-43.16670118 129.15903238 -41.78750193 127.94248289 -40.40234375 126.734375 C-39.67144531 126.07953125 -38.94054687 125.4246875 -38.1875 124.75 C-37.54167969 124.18796875 -36.89585938 123.6259375 -36.23046875 123.046875 C-34.33651909 120.38398708 -34.33651909 120.38398708 -36 114 C-46.56 114 -57.12 114 -68 114 Z M27 114 C26.31503746 116.86737998 26.31503746 116.86737998 26 120 C27.97559137 122.89796337 27.97559137 122.89796337 30.8125 125.375 C31.72644531 126.24898437 32.64039063 127.12296875 33.58203125 128.0234375 C35.73757213 130.21096572 35.73757213 130.21096572 38 130 C38.25523437 130.58265625 38.51046875 131.1653125 38.7734375 131.765625 C40.11741087 134.21388223 41.61810296 135.81743248 43.625 137.75 C44.25664062 138.36359375 44.88828125 138.9771875 45.5390625 139.609375 C46.02117187 140.06828125 46.50328125 140.5271875 47 141 C50.52706524 139.82431159 50.97406289 138.69121682 52.60131836 135.49072266 C52.8978833 134.87503418 53.19444824 134.2593457 53.5 133.625 C53.80752197 133.00028809 54.11504395 132.37557617 54.43188477 131.73193359 C57.00916733 126.3300153 58.74511391 120.8561351 60 115 C58.87572365 113.64894855 58.87572365 113.64894855 55.94897461 113.88647461 C54.60008729 113.88663366 53.25119386 113.89232388 51.90234375 113.90234375 C51.19348526 113.9037587 50.48462677 113.90517365 49.75428772 113.90663147 C47.48198288 113.91224557 45.20977525 113.92480037 42.9375 113.9375 C41.40039204 113.94251319 39.86328255 113.94707641 38.32617188 113.95117188 C34.55074358 113.96221958 30.77538829 113.97949359 27 114 Z M-23.60888672 135.81420898 C-24.45725098 136.69923096 -25.30561523 137.58425293 -26.1796875 138.49609375 C-26.63731476 138.96362564 -27.09494202 139.43115753 -27.56643677 139.91285706 C-29.01990929 141.40542049 -30.44713893 142.9204577 -31.875 144.4375 C-32.8577381 145.45535901 -33.84209713 146.47165568 -34.828125 147.48632812 C-37.23780091 149.97305296 -39.62452785 152.48053107 -42 155 C-40.82431159 158.52706524 -39.69121682 158.97406289 -36.49072266 160.60131836 C-35.87503418 160.8978833 -35.2593457 161.19444824 -34.625 161.5 C-33.68793213 161.96128296 -33.68793213 161.96128296 -32.73193359 162.43188477 C-27.3300153 165.00916733 -21.8561351 166.74511391 -16 168 C-14.64894855 166.87572365 -14.64894855 166.87572365 -14.88647461 163.94897461 C-14.88663366 162.60008729 -14.89232388 161.25119386 -14.90234375 159.90234375 C-14.90446617 158.83905602 -14.90446617 158.83905602 -14.90663147 157.75428772 C-14.91224557 155.48198288 -14.92480037 153.20977525 -14.9375 150.9375 C-14.94251319 149.40039204 -14.94707641 147.86328255 -14.95117188 146.32617188 C-14.96221958 142.55074358 -14.97949359 138.77538829 -15 135 C-18.79069513 133.89377543 -20.28581321 133.50335747 -23.60888672 135.81420898 Z M6 135 C6 145.89 6 156.78 6 168 C16.45478228 165.45869457 16.45478228 165.45869457 25.75 161.3125 C26.36359375 160.99216797 26.9771875 160.67183594 27.609375 160.34179688 C29.07892929 159.57257705 30.54046395 158.7880631 32 158 C32 153.10026137 31.11923511 152.60660888 27.765625 149.234375 C26.88132813 148.34492188 25.99703125 147.45546875 25.0859375 146.5390625 C24.15007812 145.61867187 23.21421875 144.69828125 22.25 143.75 C21.32960937 142.81414062 20.40921875 141.87828125 19.4609375 140.9140625 C18.57148438 140.02976563 17.68203125 139.14546875 16.765625 138.234375 C15.94868164 137.42194336 15.13173828 136.60951172 14.29003906 135.77246094 C11.36657643 133.50973826 9.35127206 133.32436397 6 135 Z " fill="#1FB654" transform="translate(137,11)"/>
<path d="M0 0 C0.66 1.32 1.32 2.64 2 4 C2.66 3.67 3.32 3.34 4 3 C6.93359375 3.41796875 6.93359375 3.41796875 10.4375 4.1875 C11.59121094 4.42855469 12.74492187 4.66960937 13.93359375 4.91796875 C17.29779079 6.10508032 18.28666965 6.93712863 20 10 C20.98548263 12.9564479 21.12281956 14.54221802 20.3125 17.5625 C18.22408404 21.44098678 16.19951185 23.60016272 12 25 C10.10529184 25.0685495 8.2083166 25.08480372 6.3125 25.0625 C5.31863281 25.05347656 4.32476562 25.04445313 3.30078125 25.03515625 C2.16189453 25.01775391 2.16189453 25.01775391 1 25 C1 24.34 1 23.68 1 23 C1.67546875 23.01160156 2.3509375 23.02320312 3.046875 23.03515625 C3.93890625 23.04417969 4.8309375 23.05320312 5.75 23.0625 C6.63171875 23.07410156 7.5134375 23.08570312 8.421875 23.09765625 C10.7818838 23.00826198 12.74498524 22.66912821 15 22 C14.68872484 20.41642541 14.37592711 18.83315007 14.0625 17.25 C13.88847656 16.36828125 13.71445313 15.4865625 13.53515625 14.578125 C13.07631512 12.36764947 12.56663926 10.18487932 12 8 C11.22914063 7.93941406 10.45828125 7.87882812 9.6640625 7.81640625 C8.15972656 7.69072266 8.15972656 7.69072266 6.625 7.5625 C5.62726563 7.48128906 4.62953125 7.40007812 3.6015625 7.31640625 C1 7 1 7 -1 6 C-1.042721 4.33388095 -1.04063832 2.66617115 -1 1 C-0.67 0.67 -0.34 0.34 0 0 Z " fill="#29A356" transform="translate(216,100)"/>
<path d="M0 0 C3.5147425 2.90348293 5.68306113 5.09836677 6.4375 9.625 C5.88297326 13.90277771 4.12366928 15.91560206 1.41015625 19.16796875 C-0.19962708 21.05210679 -0.19962708 21.05210679 -1 24 C0.26056595 26.29061173 1.54552276 28.40217352 3 30.5625 C4.41758225 32.68192444 5.72606403 34.78535668 7 37 C6.67 37.66 6.34 38.32 6 39 C5.67 38.01 5.34 37.02 5 36 C4.34 36 3.68 36 3 36 C2.54625 34.865625 2.0925 33.73125 1.625 32.5625 C0.42904194 28.95278308 0.42904194 28.95278308 -2 28 C-2 27.01 -2 26.02 -2 25 C-2.66 25 -3.32 25 -4 25 C-3.40072174 21.64404172 -2.15377564 19.62198774 0 17 C-0.66 17 -1.32 17 -2 17 C-2 16.01 -2 15.02 -2 14 C-1.2884375 13.38125 -1.2884375 13.38125 -0.5625 12.75 C1.78147173 10.12475166 1.67783296 7.41497058 2 4 C0.68 4 -0.64 4 -2 4 C-2 3.34 -2 2.68 -2 2 C-9.00470558 4.00319481 -9.00470558 4.00319481 -15 8 C-12.61645541 1.32607514 -6.67754339 -1.09268892 0 0 Z " fill="#2DA356" transform="translate(202,39)"/>
<path d="M0 0 C1.05405029 -0.00143509 1.05405029 -0.00143509 2.12939453 -0.00289917 C3.61556081 -0.00357988 5.10173006 -0.0017332 6.58789062 0.00244141 C8.86595319 0.00779125 11.14381859 0.00249278 13.421875 -0.00390625 C14.86458377 -0.00324545 16.30729242 -0.00196425 17.75 0 C19.06742188 0.00112793 20.38484375 0.00225586 21.7421875 0.00341797 C24.875 0.1328125 24.875 0.1328125 26.875 1.1328125 C26.875 5.7528125 26.875 10.3728125 26.875 15.1328125 C25.555 15.4628125 24.235 15.7928125 22.875 16.1328125 C22.875 16.7928125 22.875 17.4528125 22.875 18.1328125 C22.215 18.1328125 21.555 18.1328125 20.875 18.1328125 C21.07996094 17.46894531 21.28492188 16.80507812 21.49609375 16.12109375 C21.76550781 15.23808594 22.03492188 14.35507813 22.3125 13.4453125 C22.57933594 12.57519531 22.84617188 11.70507812 23.12109375 10.80859375 C23.83285055 8.2824103 24.36028572 5.7063839 24.875 3.1328125 C13.985 3.1328125 3.095 3.1328125 -8.125 3.1328125 C-8.455 2.4728125 -8.785 1.8128125 -9.125 1.1328125 C-6.11895038 -0.37021231 -3.34834028 0.00286673 0 0 Z " fill="#2F9353" transform="translate(171.125,122.8671875)"/>
<path d="M0 0 C1.875 0.25 1.875 0.25 4 1 C4.69937532 2.31647119 5.36729133 3.65022151 6 5 C6.99 5.33 7.98 5.66 9 6 C9.33 8.64 9.66 11.28 10 14 C7.23455278 10.54319097 5.15078722 6.85658398 3 3 C-2.40027279 5.35709253 -6.11436523 9.66606066 -10.25 13.75 C-11.09046875 14.54921875 -11.9309375 15.3484375 -12.796875 16.171875 C-13.5909375 16.955625 -14.385 17.739375 -15.203125 18.546875 C-15.93176758 19.25682617 -16.66041016 19.96677734 -17.41113281 20.69824219 C-19.42920738 23.62178353 -19.30324126 25.52208478 -19 29 C-19.99 29 -20.98 29 -22 29 C-22.3359375 26.35546875 -22.3359375 26.35546875 -22 23 C-20.24615777 20.8326264 -18.67358769 19.14342525 -16.625 17.3125 C-12.47681255 13.4631687 -12.47681255 13.4631687 -9 9 C-7.26847608 7.4318274 -5.46813445 5.97407548 -3.65625 4.5 C-1.7611748 2.90648605 -1.7611748 2.90648605 0 0 Z " fill="#309452" transform="translate(183,75)"/>
<path d="M0 0 C5.4611399 0.35233161 5.4611399 0.35233161 8 1 C9.5 3.0625 9.5 3.0625 10 5 C9.01 4.34 8.02 3.68 7 3 C5.02 3 3.04 3 1 3 C1.33 14.22 1.66 25.44 2 37 C1.01 36.67 0.02 36.34 -1 36 C-1.02480062 31.67668037 -1.04290758 27.35339894 -1.05493164 23.0300293 C-1.05994669 21.56062091 -1.06676033 20.09121748 -1.07543945 18.62182617 C-1.08762928 16.50438205 -1.09325669 14.38700417 -1.09765625 12.26953125 C-1.10289307 10.99698486 -1.10812988 9.72443848 -1.11352539 8.41333008 C-1.01539606 5.4629081 -0.69063835 2.86053325 0 0 Z " fill="#349854" transform="translate(142,143)"/>
<path d="M0 0 C1.8871875 0.061875 1.8871875 0.061875 3.8125 0.125 C3.8125 0.785 3.8125 1.445 3.8125 2.125 C2.74 2.33125 1.6675 2.5375 0.5625 2.75 C-4.09252954 4.45684416 -5.11277826 5.65636857 -7.1875 10.125 C-7.77404704 13.45539423 -8.05402017 16.74796034 -8.1875 20.125 C-9.5075 20.455 -10.8275 20.785 -12.1875 21.125 C-12.1875 20.465 -12.1875 19.805 -12.1875 19.125 C-11.5275 19.125 -10.8675 19.125 -10.1875 19.125 C-10.22230469 18.31675781 -10.25710937 17.50851563 -10.29296875 16.67578125 C-10.32003906 15.60714844 -10.34710938 14.53851563 -10.375 13.4375 C-10.40980469 12.38175781 -10.44460937 11.32601563 -10.48046875 10.23828125 C-10.14813055 6.70663401 -9.30428496 4.94244571 -7.1875 2.125 C-4.09861478 0.06574319 -3.47814073 -0.1140374 0 0 Z " fill="#2C9853" transform="translate(132.1875,10.875)"/>
<path d="M0 0 C2 2 2 2 2.4375 5.3125 C1.89444451 9.88968196 0.51844617 11.15173405 -3 14 C-5.86608129 15.43304064 -7.81300783 15.30644155 -11 15 C-13.9056581 13.34776304 -16.28897696 11.76790488 -18.5625 9.3125 C-20.53931728 7.50757987 -22.39661158 7.35180925 -25 7 C-24.01 6.34 -23.02 5.68 -22 5 C-19.4338007 6.0997997 -18.11820761 6.83923765 -16.4375 9.125 C-12.44234872 12.19819329 -7.86446576 11.30193236 -3 11 C-2.67 10.01 -2.34 9.02 -2 8 C-1.01 8 -0.02 8 1 8 C0.67 5.36 0.34 2.72 0 0 Z " fill="#2B9A54" transform="translate(206,175)"/>
<path d="M0 0 C0.66 0.33 1.32 0.66 2 1 C2.33 12.22 2.66 23.44 3 35 C1.68 34.67 0.36 34.34 -1 34 C-0.34 34 0.32 34 1 34 C1 23.44 1 12.88 1 2 C-4.28 3.32 -9.56 4.64 -15 6 C-14.67 5.34 -14.34 4.68 -14 4 C-13.01 4 -12.02 4 -11 4 C-11 3.34 -11 2.68 -11 2 C-7.36178302 -0.32845886 -4.23971058 -0.23553948 0 0 Z " fill="#368F55" transform="translate(121,49)"/>
<path d="M0 0 C1.58877287 3.17754575 1 6.49382922 1 10 C1.33 10.66 1.66 11.32 2 12 C4.58605332 12.4683265 4.58605332 12.4683265 7.5625 12.625 C8.57441406 12.69976562 9.58632812 12.77453125 10.62890625 12.8515625 C11.80259766 12.92503906 11.80259766 12.92503906 13 13 C13 12.34 13 11.68 13 11 C13.639375 10.71125 14.27875 10.4225 14.9375 10.125 C17.15206079 9.17176549 17.15206079 9.17176549 18 7 C19.32 7.33 20.64 7.66 22 8 C21.01 8 20.02 8 19 8 C18.690625 8.86625 18.690625 8.86625 18.375 9.75 C16.36595034 13.03753581 14.46069403 14.30111384 11 16 C6.63432234 16.32534513 3.1804133 15.7197642 -0.5625 13.4375 C-2.73446718 9.75459913 -2.40490565 7.25150937 -2 3 C-1.34 2.01 -0.68 1.02 0 0 Z " fill="#349D5C" transform="translate(59,174)"/>
<path d="M0 0 C1.65 0 3.3 0 5 0 C1.87567603 2.52349243 -1.38060496 4.27256146 -5 6 C-3.6415798 9.04332765 -2.11536976 11.12309151 0.2578125 13.453125 C0.88300781 14.071875 1.50820312 14.690625 2.15234375 15.328125 C2.80332031 15.96234375 3.45429687 16.5965625 4.125 17.25 C4.78371094 17.8996875 5.44242188 18.549375 6.12109375 19.21875 C7.74296643 20.81711727 9.3693281 22.41061897 11 24 C8 24 8 24 6.19067383 22.53125 C5.53607178 21.8609375 4.88146973 21.190625 4.20703125 20.5 C3.49482422 19.778125 2.78261719 19.05625 2.04882812 18.3125 C1.31083984 17.549375 0.57285156 16.78625 -0.1875 16 C-1.31188477 14.8553125 -1.31188477 14.8553125 -2.45898438 13.6875 C-4.31286823 11.79819161 -6.15941069 9.90224794 -8 8 C-7.34 6.02 -6.68 4.04 -6 2 C-4.02 2 -2.04 2 0 2 C0 1.34 0 0.68 0 0 Z " fill="#2F9150" transform="translate(101,55)"/>
<path d="M0 0 C0.8971875 0.309375 0.8971875 0.309375 1.8125 0.625 C1.8125 1.615 1.8125 2.605 1.8125 3.625 C-0.4975 4.285 -2.8075 4.945 -5.1875 5.625 C-5.15269531 6.28886719 -5.11789063 6.95273438 -5.08203125 7.63671875 C-4.81315905 16.40707381 -4.81315905 16.40707381 -8.1875 20.625 C-8.1875 17.21400832 -7.69604594 13.99411686 -7.1875 10.625 C-7.8475 10.295 -8.5075 9.965 -9.1875 9.625 C-7.80411189 5.07958192 -5.93795606 -1.01793533 0 0 Z " fill="#2FA45A" transform="translate(148.1875,194.375)"/>
<path d="M0 0 C0 0.66 0 1.32 0 2 C-1.98 2 -3.96 2 -6 2 C-6.2475 2.598125 -6.495 3.19625 -6.75 3.8125 C-8.16370012 6.28647521 -9.65055383 7.43370255 -12 9 C-12.33 8.34 -12.66 7.68 -13 7 C-13.721875 7.350625 -14.44375 7.70125 -15.1875 8.0625 C-18.3122705 9.10409017 -19.88161996 8.89096572 -23 8 C-20.04912342 5.04912342 -16.51837418 4.22668638 -12.625 2.875 C-11.85671875 2.59785156 -11.0884375 2.32070313 -10.296875 2.03515625 C-9.55179688 1.77347656 -8.80671875 1.51179688 -8.0390625 1.2421875 C-7.02126709 0.88423096 -7.02126709 0.88423096 -5.98291016 0.51904297 C-4 0 -4 0 0 0 Z " fill="#2FA95B" transform="translate(117,31)"/>
<path d="M0 0 C0.66 0.33 1.32 0.66 2 1 C1.4740625 2.11375 1.4740625 2.11375 0.9375 3.25 C-0.04509293 6.1322726 -0.0326802 7.21176345 1 10 C0.01 10 -0.98 10 -2 10 C-7.21974892 11.83657832 -10.24696721 13.79205414 -14 18 C-14.66 17.67 -15.32 17.34 -16 17 C-15.55084229 16.5560791 -15.10168457 16.1121582 -14.63891602 15.65478516 C-12.61084393 13.64746397 -10.58663584 11.63629001 -8.5625 9.625 C-7.85544922 8.92632812 -7.14839844 8.22765625 -6.41992188 7.5078125 C-5.74638672 6.8375 -5.07285156 6.1671875 -4.37890625 5.4765625 C-3.7557251 4.85861816 -3.13254395 4.24067383 -2.49047852 3.60400391 C-0.90951849 2.05339933 -0.90951849 2.05339933 0 0 Z " fill="#2CA75A" transform="translate(102,130)"/>
<path d="M0 0 C3.12498063 -0.02895976 6.2499269 -0.04678483 9.375 -0.0625 C10.70917969 -0.07506836 10.70917969 -0.07506836 12.0703125 -0.08789062 C13.34648437 -0.09272461 13.34648437 -0.09272461 14.6484375 -0.09765625 C15.43395996 -0.10289307 16.21948242 -0.10812988 17.02880859 -0.11352539 C19 0 19 0 21 1 C21 1.66 21 2.32 21 3 C18.17554408 3.94148531 16.85828382 4.07311695 13.98828125 3.87890625 C13.23095703 3.83056641 12.47363281 3.78222656 11.69335938 3.73242188 C10.90767578 3.67634766 10.12199219 3.62027344 9.3125 3.5625 C8.51521484 3.51029297 7.71792969 3.45808594 6.89648438 3.40429688 C4.93063478 3.27480978 2.96526335 3.13809959 1 3 C0.67 2.01 0.34 1.02 0 0 Z " fill="#2EAB51" transform="translate(175,104)"/>
<path d="M0 0 C4.62 0 9.24 0 14 0 C14 0.33 14 0.66 14 1 C13.26394531 1.04898438 12.52789062 1.09796875 11.76953125 1.1484375 C10.30580078 1.26058594 10.30580078 1.26058594 8.8125 1.375 C7.84957031 1.44460937 6.88664063 1.51421875 5.89453125 1.5859375 C2.98491062 2.00215853 0.67109226 2.79874096 -2 4 C-2.74016701 9.70985978 -3.10469338 15.24186425 -3 21 C-3.66 21 -4.32 21 -5 21 C-6.23852969 13.85234068 -5.85888741 8.68688919 -3 2 C-2.01 2 -1.02 2 0 2 C0 1.34 0 0.68 0 0 Z " fill="#309756" transform="translate(124,101)"/>
<path d="M0 0 C0 0.66 0 1.32 0 2 C-4.35294118 6 -4.35294118 6 -8 6 C-8 6.66 -8 7.32 -8 8 C-11.22975527 10.15317018 -12.25077971 10.55802349 -16 10 C-17.80078125 8.25 -17.80078125 8.25 -19.3125 6 C-19.82425781 5.2575 -20.33601563 4.515 -20.86328125 3.75 C-21.42595703 2.88375 -21.42595703 2.88375 -22 2 C-19.73337803 3.06364023 -18.17911146 3.7984996 -16.5 5.6875 C-16.005 6.120625 -15.51 6.55375 -15 7 C-11.51522921 6.56251795 -9.20115019 4.93659955 -6.375 2.9375 C-2.21411765 0 -2.21411765 0 0 0 Z " fill="#2D9B54" transform="translate(94,39)"/>
<path d="M0 0 C0.66 0.33 1.32 0.66 2 1 C0.9171875 2.04800781 0.9171875 2.04800781 -0.1875 3.1171875 C-1.115625 4.02726563 -2.04375 4.93734375 -3 5.875 C-3.928125 6.77992188 -4.85625 7.68484375 -5.8125 8.6171875 C-8.22542376 10.70644278 -8.22542376 10.70644278 -8 13 C-5.53673288 14.6446674 -5.53673288 14.6446674 -3 16 C-5 17 -5 17 -8.125 16.0625 C-9.07375 15.711875 -10.0225 15.36125 -11 15 C-11.33 13.02 -11.66 11.04 -12 9 C-10.9790625 8.7215625 -10.9790625 8.7215625 -9.9375 8.4375 C-5.81310179 6.41917747 -3.09621055 3.33712607 0 0 Z " fill="#2E9852" transform="translate(104,155)"/>
<path d="M0 0 C0.66 0.66 1.32 1.32 2 2 C-0.97 2 -3.94 2 -7 2 C-7.33 2.99 -7.66 3.98 -8 5 C-8.99 5.495 -8.99 5.495 -10 6 C-10 9.3 -10 12.6 -10 16 C-13 13 -13 13 -13.375 10.125 C-12.95174839 6.59790324 -12.1727054 4.79347837 -10 2 C-6.79732327 -0.3191797 -3.87770566 -0.3371918 0 0 Z " fill="#379E60" transform="translate(70,39)"/>
<path d="M0 0 C4.14647088 6.21970633 6.34073197 13.58323466 7 21 C5 18 5 18 5 15 C3.68 14.67 2.36 14.34 1 14 C1.20625 13.05125 1.4125 12.1025 1.625 11.125 C1.74875 10.09375 1.8725 9.0625 2 8 C1.34 7.34 0.68 6.68 0 6 C-0.125 2.875 -0.125 2.875 0 0 Z " fill="#2EA656" transform="translate(209,78)"/>
<path d="M0 0 C2.475 0.495 2.475 0.495 5 1 C6.34153698 4.2047828 7.159296 6.23891913 6.4375 9.6875 C4.69625987 12.48862543 2.92001294 13.53999353 0 15 C1.33333333 11.66666667 2.66666667 8.33333333 4 5 C2.68 3.35 1.36 1.7 0 0 Z " fill="#2E9F56" transform="translate(60,56)"/>
<path d="M0 0 C0.33 0 0.66 0 1 0 C1.33 10.89 1.66 21.78 2 33 C0.515 33.495 0.515 33.495 -1 34 C-0.67 22.78 -0.34 11.56 0 0 Z " fill="#2D8D50" transform="translate(122,146)"/>
<path d="M0 0 C0.96070434 2.88211302 1.10581883 4.69850044 1.0625 7.6875 C1.05347656 8.49574219 1.04445312 9.30398437 1.03515625 10.13671875 C1.02355469 10.75160156 1.01195312 11.36648437 1 12 C-0.32 12.33 -1.64 12.66 -3 13 C-3 13.66 -3 14.32 -3 15 C-3.66 15 -4.32 15 -5 15 C-1.92482916 4.44191344 -1.92482916 4.44191344 0 0 Z " fill="#2EA55A" transform="translate(197,126)"/>
<path d="M0 0 C2.64 0 5.28 0 8 0 C8 0.66 8 1.32 8 2 C6.9275 2.20625 5.855 2.4125 4.75 2.625 C0.29408826 4.2588343 -0.77777608 5.91110799 -3 10 C-4 7 -4 7 -3.22265625 5.17578125 C-2.1484375 3.45052083 -1.07421875 1.72526042 0 0 Z " fill="#2AA958" transform="translate(128,11)"/>
<path d="M0 0 C0.66 0.33 1.32 0.66 2 1 C1.46375 1.7425 0.9275 2.485 0.375 3.25 C-1.3096879 5.83858373 -1.3096879 5.83858373 -0.375 8.125 C0.95874257 9.94373987 2.33246908 11.4840628 4 13 C3.67 13.66 3.34 14.32 3 15 C0.43042604 13.19296794 -1.9456142 11.38782014 -4 9 C-3.9375 5.625 -3.9375 5.625 -3 3 C-2.34 3 -1.68 3 -1 3 C-0.67 2.01 -0.34 1.02 0 0 Z " fill="#319756" transform="translate(202,160)"/>
<path d="M0 0 C4.95 0 9.9 0 15 0 C15.33 0.99 15.66 1.98 16 3 C15.01 4.485 15.01 4.485 14 6 C14 4.68 14 3.36 14 2 C13.32453125 2.02320312 12.6490625 2.04640625 11.953125 2.0703125 C10.61507812 2.09738281 10.61507812 2.09738281 9.25 2.125 C8.36828125 2.14820312 7.4865625 2.17140625 6.578125 2.1953125 C4 2 4 2 0 0 Z " fill="#339757" transform="translate(34,123)"/>
<path d="M0 0 C1.6065676 0.25620684 3.2102483 0.53055871 4.8125 0.8125 C6.15248047 1.03873047 6.15248047 1.03873047 7.51953125 1.26953125 C10.18321256 2.05395393 11.25690322 2.88627799 13 5 C10.69 5.33 8.38 5.66 6 6 C5.67 5.01 5.34 4.02 5 3 C2.49552484 1.78130071 2.49552484 1.78130071 0 1 C0 0.67 0 0.34 0 0 Z " fill="#29A95A" transform="translate(110,176)"/>
<path d="M0 0 C0.66 0 1.32 0 2 0 C2 0.66 2 1.32 2 2 C3.32 2 4.64 2 6 2 C6.80967438 4.91482778 7.21845993 6.46113217 6.0625 9.3125 C5.5365625 10.1478125 5.5365625 10.1478125 5 11 C4.01 10.67 3.02 10.34 2 10 C2.226875 9.278125 2.45375 8.55625 2.6875 7.8125 C3.08398299 4.24415308 2.04377787 2.86128901 0 0 Z " fill="#2EA556" transform="translate(61,160)"/>
<path d="M0 0 C0.66 0.33 1.32 0.66 2 1 C-0.31 5.62 -2.62 10.24 -5 15 C-5.33 15 -5.66 15 -6 15 C-6.8452045 9.59069123 -3.86976961 6.26231355 -1 2 C-0.67 1.34 -0.34 0.68 0 0 Z " fill="#38A05F" transform="translate(210,145)"/>
<path d="M0 0 C-0.33 1.32 -0.66 2.64 -1 4 C-2.98 4.33 -4.96 4.66 -7 5 C-7.33 4.01 -7.66 3.02 -8 2 C-4.77208445 -0.1519437 -3.71599191 -0.20086443 0 0 Z " fill="#2CAA59" transform="translate(39,105)"/>
<path d="M0 0 C2 2 2 2 2.4375 5.3125 C1.89859263 9.85471922 0.45743005 11.14762021 -3 14 C-3.66 13.67 -4.32 13.34 -5 13 C-3.6875 10.5 -3.6875 10.5 -2 8 C-1.01 8 -0.02 8 1 8 C0.67 5.36 0.34 2.72 0 0 Z " fill="#369D5A" transform="translate(206,175)"/>
<path d="M0 0 C4.29 0 8.58 0 13 0 C13 0.66 13 1.32 13 2 C11.58456585 2.19658808 10.16755969 2.38187546 8.75 2.5625 C7.96109375 2.66691406 7.1721875 2.77132812 6.359375 2.87890625 C3.99467126 3.00027349 2.2488963 2.69633257 0 2 C0 1.34 0 0.68 0 0 Z " fill="#30A454" transform="translate(87,105)"/>
<path d="M0 0 C-0.19335938 0.56847656 -0.38671875 1.13695313 -0.5859375 1.72265625 C-2.18136423 6.45364938 -3.66900586 11.18794425 -5 16 C-6.05802584 12.75933345 -5.9025427 10.65830415 -5.0625 7.375 C-4.25306985 4.22191545 -4.25306985 4.22191545 -4 1 C-2 0 -2 0 0 0 Z " fill="#36A15C" transform="translate(74,86)"/>
<path d="M0 0 C1.65 0 3.3 0 5 0 C1.58983503 2.86453858 -1.90694544 4.34703566 -6 6 C-6 4.68 -6 3.36 -6 2 C-4.02 2 -2.04 2 0 2 C0 1.34 0 0.68 0 0 Z " fill="#35A05D" transform="translate(101,55)"/>
<path d="M0 0 C4.54805635 -0.17835515 7.8794254 0.00214565 12 2 C11.360625 2.28875 10.72125 2.5775 10.0625 2.875 C7.84793921 3.82823451 7.84793921 3.82823451 7 6 C6.34 5.67 5.68 5.34 5 5 C5.33 4.01 5.66 3.02 6 2 C3.03 1.505 3.03 1.505 0 1 C0 0.67 0 0.34 0 0 Z " fill="#27A958" transform="translate(154,34)"/>
<path d="M0 0 C3 1 3 1 5 4 C5.125 7.1875 5.125 7.1875 5 10 C3.35 8.68 1.7 7.36 0 6 C0.66 4.68 1.32 3.36 2 2 C1.34 2 0.68 2 0 2 C0 1.34 0 0.68 0 0 Z " fill="#29A558" transform="translate(137,12)"/>
<path d="M0 0 C0.66 0.33 1.32 0.66 2 1 C1.01 2.485 1.01 2.485 0 4 C-2.49609375 4.328125 -2.49609375 4.328125 -5.4375 4.25 C-6.40558594 4.23453125 -7.37367188 4.2190625 -8.37109375 4.203125 C-11 4 -11 4 -14 3 C-13.67 2.34 -13.34 1.68 -13 1 C-12.09507813 1.14308594 -12.09507813 1.14308594 -11.171875 1.2890625 C-10.37265625 1.39992188 -9.5734375 1.51078125 -8.75 1.625 C-7.96109375 1.74101563 -7.1721875 1.85703125 -6.359375 1.9765625 C-3.66567675 2.00332109 -2.34537043 1.23282292 0 0 Z " fill="#319A54" transform="translate(140,125)"/>
<path d="M0 0 C0 0.33 0 0.66 0 1 C-1.98 1 -3.96 1 -6 1 C-6.33 1.99 -6.66 2.98 -7 4 C-8.84765625 4.73046875 -8.84765625 4.73046875 -11.0625 5.1875 C-11.79597656 5.34605469 -12.52945313 5.50460938 -13.28515625 5.66796875 C-14.13400391 5.83232422 -14.13400391 5.83232422 -15 6 C-14.67 5.34 -14.34 4.68 -14 4 C-13.01 4 -12.02 4 -11 4 C-11 3.34 -11 2.68 -11 2 C-7.36576791 -0.32590854 -4.22911669 -0.16265833 0 0 Z " fill="#2EA058" transform="translate(121,49)"/>
<path d="M0 0 C0.33 0 0.66 0 1 0 C1.6319296 6.00333124 -0.62455877 10.63404795 -3 16 C-3.33 16 -3.66 16 -4 16 C-3.39891424 10.34979382 -1.92471317 5.33835539 0 0 Z " fill="#34A25B" transform="translate(54,80)"/>
<path d="M0 0 C0 0.99 0 1.98 0 3 C-1.24420647 3.5345256 -2.49570936 4.05208611 -3.75 4.5625 C-4.44609375 4.85253906 -5.1421875 5.14257812 -5.859375 5.44140625 C-8.30012784 6.07831803 -9.6403655 5.80248831 -12 5 C-10.37750059 4.16180842 -8.75191503 3.3295884 -7.125 2.5 C-6.22007812 2.0359375 -5.31515625 1.571875 -4.3828125 1.09375 C-2 0 -2 0 0 0 Z " fill="#349D5B" transform="translate(169,169)"/>
<path d="M0 0 C0.99 0.99 1.98 1.98 3 3 C3.8971875 2.505 3.8971875 2.505 4.8125 2 C7 1 7 1 10 1 C6.67692308 4.93846154 6.67692308 4.93846154 3.25 5.25 C2.5075 5.1675 1.765 5.085 1 5 C0.67 3.35 0.34 1.7 0 0 Z " fill="#339B55" transform="translate(76,148)"/>
<path d="M0 0 C5.4611399 0.35233161 5.4611399 0.35233161 8 1 C9.5 3.0625 9.5 3.0625 10 5 C9.01 4.34 8.02 3.68 7 3 C4.66800612 2.92094936 2.33167378 2.91201231 0 3 C0 2.01 0 1.02 0 0 Z " fill="#319A56" transform="translate(142,143)"/>
<path d="M0 0 C-1.90401138 1.90401138 -3.33425686 2.93520439 -6.046875 3.19921875 C-8.03233273 3.1886578 -10.0169914 3.09915043 -12 3 C-8.52582963 0.68388642 -4.04642977 -2.02321489 0 0 Z " fill="#319E59" transform="translate(157,176)"/>
<path d="M0 0 C2.16321167 3.24481751 3.6314591 6.35055759 5 10 C4.67 10.99 4.34 11.98 4 13 C3.525625 12.030625 3.05125 11.06125 2.5625 10.0625 C1.29806053 7.19522563 1.29806053 7.19522563 0 6 C-0.04080783 4.00041636 -0.04254356 1.99954746 0 0 Z " fill="#399A5F" transform="translate(209,78)"/>
<path d="M0 0 C-0.33 0.99 -0.66 1.98 -1 3 C-2.65 3.33 -4.3 3.66 -6 4 C-6.33 3.01 -6.66 2.02 -7 1 C-3.375 -1.125 -3.375 -1.125 0 0 Z " fill="#23AC51" transform="translate(176,59)"/>
<path d="M0 0 C2.64 0 5.28 0 8 0 C8 0.99 8 1.98 8 3 C5.69 3 3.38 3 1 3 C0.67 2.01 0.34 1.02 0 0 Z " fill="#29A55D" transform="translate(40,104)"/>
<path d="M0 0 C0.33 0.66 0.66 1.32 1 2 C1.99 2.33 2.98 2.66 4 3 C4.33 5.64 4.66 8.28 5 11 C0 4.63636364 0 4.63636364 0 0 Z " fill="#32A35D" transform="translate(188,78)"/>
<path d="M0 0 C-1.0625 1.5 -1.0625 1.5 -3 3 C-6.6875 3.1875 -6.6875 3.1875 -10 3 C-6.1865669 0.45771127 -4.5252563 -0.11908569 0 0 Z " fill="#2CA258" transform="translate(139,215)"/>
<path d="M0 0 C1.32 0.66 2.64 1.32 4 2 C2.02 3.32 0.04 4.64 -2 6 C-2.66 5.34 -3.32 4.68 -4 4 C-2.68 3.34 -1.36 2.68 0 2 C0 1.34 0 0.68 0 0 Z " fill="#1DBE46" transform="translate(162,70)"/>
<path d="M0 0 C2.6855594 2.6855594 3.06049974 5.37621328 4 9 C3.34 9 2.68 9 2 9 C0.4375 6.1875 0.4375 6.1875 -1 3 C-0.67 2.01 -0.34 1.02 0 0 Z " fill="#369F5B" transform="translate(72,139)"/>
<path d="M0 0 C1.125 3.75 1.125 3.75 0 6 C-0.66 6 -1.32 6 -2 6 C-2 6.99 -2 7.98 -2 9 C-2.66 9 -3.32 9 -4 9 C-2.94124926 5.59687262 -1.99097846 2.98646769 0 0 Z " fill="#31A05C" transform="translate(59,71)"/>
<path d="M0 0 C2.31 0.33 4.62 0.66 7 1 C7 1.99 7 2.98 7 4 C5.35 3.67 3.7 3.34 2 3 C2 2.34 2 1.68 2 1 C1.34 0.67 0.68 0.34 0 0 Z " fill="#30A45D" transform="translate(198,40)"/>
<path d="" fill="#000000" transform="translate(0,0)"/>
<path d="" fill="#000000" transform="translate(0,0)"/>
<path d="" fill="#000000" transform="translate(0,0)"/>
<path d="" fill="#000000" transform="translate(0,0)"/>
<path d="" fill="#000000" transform="translate(0,0)"/>
<path d="" fill="#000000" transform="translate(0,0)"/>
<path d="" fill="#000000" transform="translate(0,0)"/>
<path d="" fill="#000000" transform="translate(0,0)"/>
<path d="" fill="#000000" transform="translate(0,0)"/>
<path d="" fill="#000000" transform="translate(0,0)"/>
<path d="" fill="#000000" transform="translate(0,0)"/>
<path d="" fill="#000000" transform="translate(0,0)"/>
<path d="" fill="#000000" transform="translate(0,0)"/>
<path d="" fill="#000000" transform="translate(0,0)"/>
<path d="" fill="#000000" transform="translate(0,0)"/>
<path d="" fill="#000000" transform="translate(0,0)"/>
<path d="" fill="#000000" transform="translate(0,0)"/>
<path d="" fill="#000000" transform="translate(0,0)"/>
<path d="" fill="#000000" transform="translate(0,0)"/>
<path d="" fill="#000000" transform="translate(0,0)"/>
<path d="" fill="#000000" transform="translate(0,0)"/>
<path d="" fill="#000000" transform="translate(0,0)"/>
<path d="" fill="#000000" transform="translate(0,0)"/>
<path d="" fill="#000000" transform="translate(0,0)"/>
<path d="" fill="#000000" transform="translate(0,0)"/>
<path d="" fill="#000000" transform="translate(0,0)"/>
<path d="" fill="#000000" transform="translate(0,0)"/>
<path d="" fill="#000000" transform="translate(0,0)"/>
<path d="" fill="#000000" transform="translate(0,0)"/>
<path d="" fill="#000000" transform="translate(0,0)"/>
<path d="" fill="#000000" transform="translate(0,0)"/>
<path d="" fill="#000000" transform="translate(0,0)"/>
<path d="" fill="#000000" transform="translate(0,0)"/>
<path d="" fill="#000000" transform="translate(0,0)"/>
<path d="" fill="#000000" transform="translate(0,0)"/>
<path d="" fill="#000000" transform="translate(0,0)"/>
<path d="" fill="#000000" transform="translate(0,0)"/>
<path d="" fill="#000000" transform="translate(0,0)"/>
<path d="" fill="#000000" transform="translate(0,0)"/>
<path d="" fill="#000000" transform="translate(0,0)"/>
<path d="" fill="#000000" transform="translate(0,0)"/>
<path d="" fill="#000000" transform="translate(0,0)"/>
<path d="" fill="#000000" transform="translate(0,0)"/>
<path d="" fill="#000000" transform="translate(0,0)"/>
<path d="" fill="#000000" transform="translate(0,0)"/>
<path d="" fill="#000000" transform="translate(0,0)"/>
<path d="" fill="#000000" transform="translate(0,0)"/>
<path d="" fill="#000000" transform="translate(0,0)"/>
<path d="" fill="#000000" transform="translate(0,0)"/>
<path d="" fill="#000000" transform="translate(0,0)"/>
<path d="" fill="#000000" transform="translate(0,0)"/>
<path d="" fill="#000000" transform="translate(0,0)"/>
<path d="" fill="#000000" transform="translate(0,0)"/>
<path d="" fill="#000000" transform="translate(0,0)"/>
<path d="" fill="#000000" transform="translate(0,0)"/>
<path d="" fill="#000000" transform="translate(0,0)"/>
<path d="" fill="#000000" transform="translate(0,0)"/>
<path d="" fill="#000000" transform="translate(0,0)"/>
<path d="" fill="#000000" transform="translate(0,0)"/>
</svg>
